<svg xmlns="http://www.w3.org/2000/svg" width="28" height="31" viewBox="0 0 28 31">
  <g fill="#33AB52" fill-rule="evenodd">
    <circle cx="14.5" cy="1.5" r="1.5"/>
    <circle cx="11.5" cy="5.5" r="1.5"/>
    <circle cx="16.5" cy="5.5" r="1.5"/>
    <circle cx="14.5" cy="8.5" r="1.5"/>
    <circle cx="8.5" cy="8.5" r="1.5"/>
    <circle cx="19.5" cy="8.5" r="1.5"/>
    <path fill-rule="nonzero" d="M23.2652,11 L4.7348,11 L0,20.6628571 L0,28.1428571 L2.8,28.1428571 C2.8,29.72 4.0558,31 5.6,31 C7.1442,31 8.4,29.72 8.4,28.1428571 L19.6,28.1428571 C19.6,29.72 20.8558,31 22.4,31 C23.9442,31 25.2,29.72 25.2,28.1428571 L28,28.1428571 L28,20.6628571 L23.2652,11 Z M6.4652,13.8571429 L21.5348,13.8571429 L24.3348,19.5714286 L3.6652,19.5714286 L6.4652,13.8571429 Z M18.2,25.2857143 L9.8,25.2857143 L9.8,22.4285714 L18.2,22.4285714 L18.2,25.2857143 Z M2.8,22.4285714 L7,22.4285714 L7,25.2857143 L2.8,25.2857143 L2.8,22.4285714 Z M21,25.2857143 L21,22.4285714 L25.2,22.4285714 L25.2,25.2857143 L21,25.2857143 Z"/>
  </g>
</svg>
