<svg xmlns="http://www.w3.org/2000/svg" viewBox="0 0 52 76">
  <path d="M45.291,30.917 L43.148,30.917 L43.148,17.899 C43.148,8.442 35.456,0.749 26.001,0.749 C16.544,0.749 8.851,8.442 8.851,17.899 L8.851,30.917 L6.708,30.917 C3.02,30.917 0.03,33.906 0.03,37.595 L0.03,68.573 C0.03,72.261 3.02,75.251 6.708,75.251 L45.291,75.251 C48.979,75.251 51.97,72.261 51.97,68.573 L51.97,37.595 C51.97,33.906 48.979,30.917 45.291,30.917 Z M14.851,17.899 C14.851,11.751 19.853,6.749 26.001,6.749 C32.147,6.749 37.148,11.751 37.148,17.899 L37.148,30.917 L14.851,30.917 L14.851,17.899 Z M29.417,52.746 L29.417,61.084 C29.417,62.971 27.888,64.5 26,64.5 C24.113,64.5 22.584,62.971 22.584,61.084 L22.584,52.746 C20.984,51.654 19.934,49.816 19.934,47.734 C19.934,44.382 22.65,41.666 26,41.666 C29.35,41.666 32.066,44.383 32.066,47.734 C32.066,49.816 31.016,51.652 29.417,52.746 Z"/>
</svg>
